<?xml version="1.0" encoding="utf-8"?><svg xmlns="http://www.w3.org/2000/svg" xmlns:xlink="http://www.w3.org/1999/xlink"><symbol viewBox="0 0 24 24" id="checked" xmlns="http://www.w3.org/2000/svg"><path d="M12 0C5.383 0 0 5.383 0 12s5.383 12 12 12 12-5.383 12-12S18.617 0 12 0zm0 23.077C5.892 23.077.923 18.107.923 12 .923 5.892 5.893.923 12 .923c6.108 0 11.077 4.97 11.077 11.077 0 6.108-4.97 11.077-11.077 11.077z"/><path d="M17.654 7.078l-7.093 7.98-4.273-3.418a.462.462 0 00-.577.72l4.616 3.693a.461.461 0 00.633-.054l7.385-8.308a.461.461 0 10-.69-.613z"/></symbol><symbol viewBox="0 0 79 81" id="date" xmlns="http://www.w3.org/2000/svg"><path d="M71.22 9.178a7.14 7.14 0 00-.49-.003h-6.17V3.874C64.56 1.753 62.538.5 60.417.5H54.73c-2.121 0-3.663 1.253-3.663 3.374v5.3H27.934v-5.3C27.934 1.753 26.392.5 24.272.5h-5.687c-2.12 0-4.145 1.253-4.145 3.374v5.3H8.272a7.133 7.133 0 00-7.326 7.422v55.711c0 4.241 3.085 8.193 7.326 8.193H70.73c4.24 0 7.325-3.952 7.325-8.193v-55.71a7.133 7.133 0 00-6.835-7.42zM54.73 4.355h5.976v10.603h-5.977V4.355zm-36.145 0h5.494v10.603h-5.494V4.355zM74.2 72.307c0 2.12-1.349 4.337-3.47 4.337H8.273c-2.12 0-3.47-2.216-3.47-4.337V31.343H74.2v40.964zm0-55.71v10.891H4.802V16.596a3.277 3.277 0 013.47-3.566h6.168v2.12c0 2.121 2.024 3.663 4.145 3.663h5.687a3.566 3.566 0 003.662-3.662V13.03h23.133v2.12a3.566 3.566 0 003.663 3.663h5.686c2.12 0 4.145-1.542 4.145-3.662V13.03h6.169a3.277 3.277 0 013.47 3.566z"/><path d="M28.802 57.657l-1.735 9.639a1.928 1.928 0 002.796 2.023l8.674-4.53 8.675 4.53.867.193c.419.008.827-.129 1.157-.385a1.928 1.928 0 00.77-1.832l-1.734-9.638 7.036-6.747a2.12 2.12 0 00.482-2.024 2.025 2.025 0 00-1.542-1.253l-9.639-1.446-4.337-8.771a1.927 1.927 0 00-3.47 0l-4.337 8.771-9.639 1.446a2.024 2.024 0 00-1.542 1.253 2.12 2.12 0 00.482 2.024l7.036 6.747zm5.301-7.807a1.735 1.735 0 001.35-1.06l3.084-6.17 3.084 6.17c.232.566.744.97 1.35 1.06l6.843.963-4.916 4.723a2.024 2.024 0 00-.578 1.735l1.157 6.844-6.073-3.277-.867-.193-.867.193-6.073 3.277 1.157-6.844a2.024 2.024 0 00-.578-1.735l-4.916-4.723 6.843-.963z"/></symbol><symbol viewBox="0 0 11 20" id="fb" xmlns="http://www.w3.org/2000/svg"><path d="M3.075 20h3.662v-9.125H9.8l.462-3.55H6.737V5.05c0-1.025.288-1.725 1.763-1.725h1.887V.137A26.965 26.965 0 007.65 0C4.925 0 3.075 1.663 3.075 4.7v2.625H0v3.55h3.075V20z"/></symbol><symbol viewBox="0 0 17 36" id="r" xmlns="http://www.w3.org/2000/svg"><path d="M16.93 3.714v16.07H8v16.072H2.644V19.785H.858v-3.572h1.786V.143H16.93v3.57zm-5.357 0H8v12.5h3.572v-12.5z"/></symbol><symbol viewBox="0 0 80 81" id="tools-and-utensils" xmlns="http://www.w3.org/2000/svg"><g clip-path="url(#eclip0_2330:909)"><path d="M74.09 13.227c-5.723 0-10.379-4.656-10.379-10.379V.5H16.288v2.348c0 5.723-4.656 10.379-10.379 10.379H3.561v15.615a54.577 54.577 0 009.775 31.247 54.58 54.58 0 0025.841 20.103L40 80.5l.822-.308a54.576 54.576 0 0025.84-20.103 54.577 54.577 0 009.776-31.247V13.227H74.09zm-2.348 15.615a49.9 49.9 0 01-8.938 28.57 49.89 49.89 0 01-22.805 18.066 49.891 49.891 0 01-22.804-18.066 49.9 49.9 0 01-8.938-28.57V17.741c6.436-1.011 11.534-6.109 12.545-12.545h38.396c1.01 6.436 6.108 11.534 12.544 12.545v11.101z"/><path d="M50.477 22.56L34.934 38.105l-5.413-5.413-9.962 9.963L34.934 58.03l25.505-25.506-9.962-9.963zM26.201 42.654l3.32-3.32 5.413 5.412 15.543-15.544 3.321 3.321-18.864 18.864-8.733-8.733z"/></g><defs><clipPath id="eclip0_2330:909"><path transform="translate(0 .5)" d="M0 0h80v80H0z"/></clipPath></defs></symbol><symbol viewBox="0 0 81 80" id="trophy" xmlns="http://www.w3.org/2000/svg"><path fill-rule="evenodd" clip-rule="evenodd" d="M25.5 72.5A2.5 2.5 0 0128 70h25a2.5 2.5 0 010 5H28a2.5 2.5 0 01-2.5-2.5z"/><path fill-rule="evenodd" clip-rule="evenodd" d="M40.5 50a2.5 2.5 0 012.5 2.5v20a2.5 2.5 0 01-5 0v-20a2.5 2.5 0 012.5-2.5z"/><path fill-rule="evenodd" clip-rule="evenodd" d="M57.981 5a5 5 0 015 4.999V10h-2.5l2.5-.004V10c.006 3.968.019 17.089.019 25 0 6.137-3.935 11.163-8.358 14.51C50.224 52.853 44.706 55 40.494 55s-9.73-2.147-14.146-5.49c-4.422-3.348-8.354-8.373-8.354-14.51 0-2.394.005-7.443.01-12.488v-.003c.005-5.046.01-10.09.01-12.476v-.008a5 5 0 014.998-4.984l.002 2.5v-2.5L57.981 5zm0 5l-34.967.04c0 2.393-.005 7.431-.01 12.469v.008c-.005 5.047-.01 10.092-.01 12.483 0 3.907 2.552 7.631 6.372 10.523C33.19 48.42 37.675 50 40.494 50c2.819 0 7.304-1.581 11.131-4.477C55.447 42.63 58 38.906 58 35c0-7.911-.013-21.033-.019-24.996V10z"/><path fill-rule="evenodd" clip-rule="evenodd" d="M5.5 15A2.5 2.5 0 018 12.5h12.5a2.5 2.5 0 010 5h-10c0 3.847 1.179 7.73 3.103 10.59 1.933 2.873 4.378 4.41 6.897 4.41a2.5 2.5 0 010 5c-4.739 0-8.543-2.9-11.046-6.619C6.942 27.148 5.5 22.281 5.5 17.5V15zM58 15a2.5 2.5 0 012.5-2.5H73a2.5 2.5 0 012.5 2.5v2.5c0 4.781-1.442 9.648-3.954 13.381-2.503 3.72-6.308 6.619-11.046 6.619a2.5 2.5 0 010-5c2.52 0 4.964-1.537 6.897-4.41 1.924-2.86 3.103-6.743 3.103-10.59h-10A2.5 2.5 0 0158 15z"/></symbol><symbol viewBox="0 0 19 19" id="twitch" xmlns="http://www.w3.org/2000/svg"><path d="M9.333 5.201v4.844H7.715V5.2h1.618zm4.442 0v4.844h-1.618V5.2h1.618zm0 8.482l2.824-2.835V1.976H3.273v11.707H6.91v2.422l2.422-2.422h4.442zM18.217.357v11.306l-4.844 4.844H9.735l-2.422 2.422H4.891v-2.422H.45V3.583L1.666.357h16.551z"/></symbol><symbol viewBox="0 0 22 18" id="twitter" xmlns="http://www.w3.org/2000/svg"><path d="M21.497 2.293a9.063 9.063 0 01-2.17 2.237 12.357 12.357 0 01-.495 4.045 12.467 12.467 0 01-1.553 3.32 13.071 13.071 0 01-2.465 2.827c-.955.812-2.107 1.464-3.455 1.955-1.348.482-2.79.723-4.326.723-2.42 0-4.634-.647-6.643-1.942.313.036.66.054 1.045.054 2.009 0 3.799-.616 5.37-1.848a4.24 4.24 0 01-2.518-.858 4.267 4.267 0 01-1.526-2.142c.294.044.567.066.817.066.384 0 .763-.049 1.138-.147-1-.205-1.83-.7-2.491-1.486a4.223 4.223 0 01-.978-2.76v-.053c.607.34 1.26.522 1.956.55a4.32 4.32 0 01-1.407-1.541 4.215 4.215 0 01-.522-2.062c0-.786.196-1.514.59-2.183a12.365 12.365 0 003.937 3.2 12.164 12.164 0 004.982 1.326 4.807 4.807 0 01-.107-.99c0-1.197.42-2.215 1.259-3.054.848-.849 1.87-1.273 3.067-1.273 1.25 0 2.303.456 3.16 1.366A8.482 8.482 0 0020.909.58c-.33 1.027-.964 1.821-1.902 2.384a8.62 8.62 0 002.491-.67z"/></symbol><symbol viewBox="0 0 26 16" id="vk" xmlns="http://www.w3.org/2000/svg"><path d="M25.342 1.35c.176-.587 0-1.017-.834-1.017h-2.764c-.704 0-1.025.372-1.201.78 0 0-1.406 3.427-3.397 5.65-.643.646-.936.85-1.287.85-.175 0-.43-.204-.43-.79V1.349c0-.703-.202-1.016-.788-1.016h-4.343c-.439 0-.704.326-.704.636 0 .665.996.819 1.098 2.694v4.068c0 .891-.16 1.054-.513 1.054-.936 0-3.215-3.44-4.567-7.376C5.348.644 5.082.335 4.377.335H1.614c-.79 0-.947.372-.947.78 0 .733.936 4.363 4.361 9.163 2.284 3.278 5.499 5.056 8.428 5.056 1.755 0 1.972-.395 1.972-1.075V11.78c0-.79.168-.948.724-.948.408 0 1.111.207 2.75 1.786 1.874 1.873 2.184 2.713 3.236 2.713h2.763c.789 0 1.183-.394.956-1.173-.248-.775-1.143-1.903-2.33-3.238-.645-.761-1.61-1.58-1.903-1.99-.41-.528-.291-.761 0-1.23.001.001 3.367-4.74 3.718-6.352z"/></symbol><symbol viewBox="0 0 14 18" id="watch" xmlns="http://www.w3.org/2000/svg"><path d="M1.154 17.462a1.206 1.206 0 01-.56-.147A1.145 1.145 0 010 16.308V1.669A1.154 1.154 0 011.765.714l11.694 7.31a1.145 1.145 0 010 1.946L1.765 17.28a1.124 1.124 0 01-.611.182zm0-16.068a.258.258 0 00-.138 0 .267.267 0 00-.155.25v14.638a.293.293 0 00.448.241l11.72-7.276a.293.293 0 000-.5L1.308 1.445a.276.276 0 00-.155-.051z"/></symbol></svg>